<svg width="400" height="120" viewBox="0 0 400 120" fill="none" xmlns="http://www.w3.org/2000/svg">
  <!-- Main "Stackr" text -->
  <path d="M43.5 97c-10.7 0-19.3-2.3-25.9-7-6.7-4.7-10-11.3-10-20h25c0 3 1.2 5.3 3.6 7 2.4 1.7 6 2.5 10.8 2.5 4.3 0 7.5-.7 9.8-2 2.2-1.4 3.3-3.3 3.3-5.8 0-2.7-1.2-4.8-3.6-6.2-2.4-1.4-6.7-2.7-12.8-4-7.5-1.6-13.6-3.3-18.5-5.2-4.8-1.9-8.9-4.6-12.2-8.2C9.7 44.4 8 39.8 8 34c0-8.8 3.5-15.8 10.5-21 7-5.2 16-7.8 27-7.8 11.5 0 20.6 2.5 27.3 7.6 6.7 5 10 12 10 21h-25.2c0-2.8-1-5-3-6.8-2-1.7-5.2-2.6-9.4-2.6-3.7 0-6.7.7-8.8 2-2.1 1.4-3.2 3.3-3.2 5.8 0 2.6 1.2 4.6 3.5 6 2.3 1.4 6.5 2.7 12.5 4 7.7 1.6 14 3.3 19 5.2 5 1.9 9.1 4.7 12.4 8.4 3.3 3.7 5 8.5 5 14.4 0 9-3.5 16.1-10.5 21.3C64.5 94.4 55.2 97 43.5 97z" fill="#7445FF"/>
  <path d="M111.8 95.4l-26-63.2h24.8l13.6 37 13.6-37h24.8l-26 63.2h-24.8z" fill="#7445FF"/>
  <path d="M186.6 95.4v-16l-28.8-47.2h26l14.8 29 14.8-29h26l-28.8 47.2v16h-24z" fill="#7445FF"/>
  <path d="M243.4 95.4V32.2h45.6c5.2 0 9.7 1 13.4 3 3.7 2 6.6 4.6 8.6 8 2 3.4 3 7.2 3 11.4 0 4.2-1 8-3 11.4-2 3.3-4.9 6-8.6 8-3.7 2-8.2 3-13.4 3h-21.6v18.5h-24zm24-38h21.6c1.5 0 2.6-.5 3.4-1.5.8-1 1.2-2.4 1.2-4.2 0-1.8-.4-3.2-1.2-4.2-.8-1-2-1.5-3.4-1.5h-21.6v11.4z" fill="#7445FF"/>
  <path d="M324.2 95.4V32.2h24v63.2h-24z" fill="#7445FF"/>
  
  <!-- Color bars on the right -->
  <rect x="350" y="20" width="40" height="16" rx="8" fill="#7445FF" />
  <rect x="350" y="48" width="40" height="16" rx="8" fill="#7445FF" />
  <rect x="350" y="76" width="40" height="16" rx="8" fill="#00CC88" />
</svg>